<svg width="32" height="32" viewBox="0 0 32 32" fill="none" xmlns="http://www.w3.org/2000/svg">
  <!-- Background circle -->
  <circle cx="16" cy="16" r="16" fill="#256975"/>
  
  <!-- Book -->
  <rect x="8" y="10" width="16" height="14" rx="1" fill="white" opacity="0.9"/>
  <line x1="16" y1="10" x2="16" y2="24" stroke="#256975" stroke-width="1.5"/>
  <line x1="11" y1="14" x2="15" y2="14" stroke="#256975" stroke-width="0.8"/>
  <line x1="17" y1="14" x2="21" y2="14" stroke="#256975" stroke-width="0.8"/>
  <line x1="11" y1="17" x2="15" y2="17" stroke="#256975" stroke-width="0.8"/>
  <line x1="17" y1="17" x2="21" y2="17" stroke="#256975" stroke-width="0.8"/>
  <line x1="11" y1="20" x2="15" y2="20" stroke="#256975" stroke-width="0.8"/>
  <line x1="17" y1="20" x2="21" y2="20" stroke="#256975" stroke-width="0.8"/>
  
  <!-- Flame element -->
  <path d="M22 8 Q24 6 25 8 Q26 10 25 12 Q24 14 22 13 Q20 12 21 10 Q22 8 22 8 Z" fill="#FF6B35"/>
</svg>
