<svg width="180" height="50" viewBox="0 0 180 50" fill="none" xmlns="http://www.w3.org/2000/svg">
  <!-- Modern Book Icon -->
  <g id="book-icon">
    <!-- Book pages -->
    <path d="M8 12 L8 38 C8 38 14 35 20 35 C26 35 32 38 32 38 L32 12 C32 12 26 15 20 15 C14 15 8 12 8 12 Z" fill="#256975" stroke="#256975" stroke-width="1.5" stroke-linejoin="round"/>
    <!-- Center binding -->
    <line x1="20" y1="12" x2="20" y2="38" stroke="#E0F2F7" stroke-width="1.5"/>
    <!-- Page lines left -->
    <line x1="12" y1="20" x2="18" y2="20" stroke="#E0F2F7" stroke-width="1" opacity="0.6"/>
    <line x1="12" y1="24" x2="18" y2="24" stroke="#E0F2F7" stroke-width="1" opacity="0.6"/>
    <line x1="12" y1="28" x2="18" y2="28" stroke="#E0F2F7" stroke-width="1" opacity="0.6"/>
    <!-- Page lines right -->
    <line x1="22" y1="20" x2="28" y2="20" stroke="#E0F2F7" stroke-width="1" opacity="0.6"/>
    <line x1="22" y1="24" x2="28" y2="24" stroke="#E0F2F7" stroke-width="1" opacity="0.6"/>
    <line x1="22" y1="28" x2="28" y2="28" stroke="#E0F2F7" stroke-width="1" opacity="0.6"/>
  </g>
  
  <!-- Text: BookBlaze -->
  <text x="42" y="32" font-family="-apple-system, BlinkMacSystemFont, 'Segoe UI', Arial, sans-serif" font-size="22" font-weight="700" fill="#256975" letter-spacing="-0.5">
    BookBlaze
  </text>
</svg>
